<?xml version="1.0" encoding="utf-8"?>
<!-- Generator: Adobe Illustrator 24.1.2, SVG Export Plug-In . SVG Version: 6.00 Build 0)  -->
<svg version="1.1" id="Layer_1" xmlns="http://www.w3.org/2000/svg" xmlns:xlink="http://www.w3.org/1999/xlink" x="0px" y="0px"
	 viewBox="0 0 197 47" style="enable-background:new 0 0 197 47;" xml:space="preserve">
<style type="text/css">
	.st0{fill:#FFFFFF;}
</style>
<g>
	<path class="st0" d="M59.79,16.27l-4.5,2.05l4.46,0.4c0.2,0.02,0.35,0.2,0.33,0.4c-0.02,0.2-0.2,0.35-0.4,0.33L48.6,18.42
		L6.84,29.26c-0.03,0.01-0.06-0.01-0.09-0.01v1.16l-5.99,1.24v11.41l11.17,2.67l31.97-1.49l4.59,0.13l17.3-0.79l0.01-25.88
		L59.79,16.27z M18.94,37.01l-4.33,0.04v-5.54l0.5,0.66l3.83-0.01V37.01z M26.62,36.93l-4.25,0.05v-5.48l0.6,0.67l3.64-0.01V36.93z
		 M34.16,36.85l-4.17,0.04v-5.43l0.53,0.75l3.64-0.01V36.85z M41.55,36.78l-4.09,0.04v-5.38l0.55,0.78l3.53-0.01V36.78z
		 M56.01,35.44l-4.32,0.14v-6.26l0.95,1.01l3.37,0.07V35.44z M56.01,27.6l-4.32-0.15v-6.26l0.85,0.94l3.47,0.3V27.6z M62.82,35.21
		L59,35.34v-5.88l0.78,0.87l3.04,0.06V35.21z M62.82,27.84L59,27.7v-5.88l0.8,0.78l3.02,0.26V27.84z"/>
	<path class="st0" d="M36.8,7.96L36.8,7.96c0-0.13-0.05-0.46-1.48-0.46c-1.42,0-1.47,0.33-1.48,0.46h0l-0.78,13.75l4.44-1.15
		L36.8,7.96z M22.14,13.99L22.14,13.99c0-0.13-0.04-0.42-1.26-0.42s-1.26,0.29-1.26,0.42l0,0l-0.65,11.38l3.76-0.98L22.14,13.99z
		 M52.52,18.07l-0.95-16.8c0-0.05-0.03-0.08-0.06-0.11c-0.14-0.27-0.7-0.41-1.74-0.41c-1.04,0-1.6,0.14-1.74,0.41
		C48,1.19,47.98,1.22,47.98,1.27L47.02,18.1l1.52-0.39L52.52,18.07z"/>
</g>
<g>
	<path class="st0" d="M92.96,30.45v1.86h-7.5v-1.86h0.57c0.48,0,0.79-0.06,0.92-0.18c0.17-0.15,0.25-0.5,0.25-1.05v-8.85
		l-3.56,11.95h-2.84l-3.43-11.98v8.89c0,0.58,0.09,0.94,0.26,1.05c0.17,0.12,0.67,0.18,1.47,0.18v1.86h-6.07v-1.86
		c0.82,0,1.35-0.08,1.6-0.25C74.88,30.02,75,29.7,75,29.22v-8.02c0-0.48-0.11-0.8-0.33-0.95c-0.25-0.17-0.8-0.26-1.64-0.26v-1.91
		h7.44l2.47,8.78l2.61-8.78h7.41v1.91c-0.88,0-1.45,0.08-1.7,0.24c-0.25,0.16-0.38,0.48-0.38,0.97v8.02c0,0.47,0.12,0.79,0.36,0.95
		C91.52,30.35,92.09,30.45,92.96,30.45z"/>
	<path class="st0" d="M109.19,30.45v1.86h-7.83v-1.86h0.34c0.63,0,1.05-0.05,1.24-0.15c0.2-0.1,0.3-0.25,0.3-0.45
		c0-0.14-0.03-0.31-0.08-0.5c-0.06-0.19-0.24-0.73-0.55-1.63h-4.09c-0.31,0.87-0.51,1.45-0.6,1.75c-0.06,0.2-0.09,0.33-0.09,0.4
		c0,0.23,0.12,0.38,0.37,0.46c0.25,0.08,0.75,0.12,1.51,0.12v1.86H93.5v-1.86c0.74,0,1.22-0.07,1.45-0.2
		c0.27-0.16,0.52-0.54,0.72-1.16l3.64-11.01h4.21l3.51,11.05c0.19,0.57,0.4,0.93,0.65,1.09C107.93,30.37,108.43,30.45,109.19,30.45z
		 M99.13,25.9l2.87,0l-1.42-4.52L99.13,25.9z"/>
	<path class="st0" d="M126.38,18.07v1.91c-0.84,0-1.37,0.08-1.6,0.23c-0.23,0.15-0.35,0.48-0.35,0.98v11.12h-4.39l-5.82-10.55v7.46
		c0,0.5,0.2,0.84,0.59,1.04c0.26,0.13,0.62,0.2,1.09,0.2c0.08,0,0.15,0,0.22,0c0.07,0,0.14,0,0.2,0v1.85h-6.53v-1.85
		c0.86,0,1.41-0.08,1.65-0.25c0.25-0.17,0.37-0.49,0.37-0.98V21.2c0-0.53-0.11-0.86-0.34-1c-0.23-0.14-0.79-0.21-1.68-0.21v-1.91
		h6.78l5.46,9.94v-6.82c0-0.47-0.12-0.78-0.37-0.94c-0.28-0.18-0.88-0.27-1.79-0.27v-1.91H126.38z"/>
	<path class="st0" d="M135.95,30.46v1.85h-8.41v-1.85c0.07,0,0.14,0,0.22,0c0.08,0,0.16,0,0.24,0c0.5,0,0.87-0.06,1.13-0.19
		c0.39-0.19,0.58-0.54,0.58-1.05v-8.02c0-0.56-0.08-0.9-0.23-1.02c-0.15-0.12-0.55-0.19-1.2-0.19h-0.73v-1.91h8.41v1.91
		c-0.95,0-1.55,0.06-1.77,0.17c-0.28,0.14-0.42,0.49-0.42,1.04v8.03c0,0.5,0.21,0.85,0.64,1.04c0.28,0.12,0.68,0.19,1.2,0.19H135.95
		z"/>
	<path class="st0" d="M151.82,30.45v1.86h-7.83v-1.86h0.34c0.63,0,1.05-0.05,1.24-0.15c0.2-0.1,0.29-0.25,0.29-0.45
		c0-0.14-0.03-0.31-0.08-0.5c-0.06-0.19-0.24-0.73-0.55-1.63h-4.09c-0.31,0.87-0.51,1.45-0.6,1.75c-0.06,0.2-0.09,0.33-0.09,0.4
		c0,0.23,0.12,0.38,0.37,0.46c0.25,0.08,0.75,0.12,1.51,0.12v1.86h-6.21v-1.86c0.74,0,1.22-0.07,1.45-0.2
		c0.27-0.16,0.52-0.54,0.72-1.16l3.64-11.01h4.21l3.51,11.05c0.19,0.57,0.4,0.93,0.65,1.09C150.56,30.37,151.06,30.45,151.82,30.45z
		 M141.76,25.9l2.87,0l-1.42-4.52L141.76,25.9z"/>
	<path class="st0" d="M163.47,26.81h2.26c0,1.88-0.47,3.31-1.42,4.29c-1.05,1.09-2.66,1.63-4.83,1.63c-2.39,0-4.28-0.72-5.66-2.15
		c-1.32-1.37-1.98-3.16-1.98-5.37c0-2.21,0.69-4.02,2.06-5.43c1.37-1.41,3.14-2.11,5.3-2.11c0.66,0,1.24,0.07,1.75,0.21
		c0.74,0.2,1.54,0.59,2.41,1.16l0.46-1.13h1.92v5.81h-2.04c-0.22-1.44-0.66-2.49-1.33-3.14c-0.57-0.56-1.32-0.83-2.25-0.83
		c-1.08,0-1.95,0.48-2.61,1.43c-0.67,0.95-1,2.2-1,3.74c0,1.05,0.07,1.91,0.21,2.57c0.2,0.96,0.55,1.7,1.05,2.22
		c0.6,0.62,1.43,0.93,2.51,0.93c0.93,0,1.67-0.32,2.21-0.96C163.01,29.02,163.35,28.07,163.47,26.81z"/>
	<path class="st0" d="M181.74,30.45v1.86h-7.83v-1.86h0.34c0.63,0,1.05-0.05,1.24-0.15c0.2-0.1,0.29-0.25,0.29-0.45
		c0-0.14-0.03-0.31-0.08-0.5c-0.06-0.19-0.24-0.73-0.55-1.63h-4.09c-0.31,0.87-0.51,1.45-0.6,1.75c-0.06,0.2-0.09,0.33-0.09,0.4
		c0,0.23,0.12,0.38,0.37,0.46c0.25,0.08,0.75,0.12,1.51,0.12v1.86h-6.21v-1.86c0.74,0,1.22-0.07,1.45-0.2
		c0.27-0.16,0.52-0.54,0.72-1.16l3.64-11.01h4.21l3.51,11.05c0.19,0.57,0.4,0.93,0.65,1.09C180.48,30.37,180.98,30.45,181.74,30.45z
		 M171.69,25.9l2.87,0l-1.42-4.52L171.69,25.9z"/>
	<path class="st0" d="M196.06,26.52v5.79h-13.29v-1.86c0.94,0,1.5-0.05,1.69-0.16c0.24-0.13,0.36-0.49,0.36-1.07v-8.02
		c0-0.54-0.09-0.89-0.28-1.03c-0.15-0.12-0.53-0.17-1.13-0.17h-0.65v-1.91h8.22v1.91c-0.76,0-1.26,0.04-1.51,0.13
		c-0.45,0.17-0.67,0.52-0.67,1.07v9.25h1.27c1.05,0,1.76-0.05,2.13-0.14c0.59-0.15,1.02-0.49,1.31-1.01
		c0.32-0.57,0.55-1.49,0.71-2.77H196.06z"/>
	<path class="st0" d="M73.68,44.1v-7.67h0.68v7.67H73.68z"/>
	<path class="st0" d="M83.52,36.46h0.78l4.21,6.72l0.02,0v-6.72h0.68v7.64h-0.87l-4.13-6.6h-0.02v6.6h-0.69V36.46z"/>
	<path class="st0" d="M100.28,36.46c1.26,0,2.23,0.32,2.91,0.96c0.68,0.64,1.02,1.59,1.02,2.86c0,1.27-0.34,2.22-1.02,2.86
		c-0.68,0.64-1.65,0.96-2.91,0.96h-2.06v-7.64H100.28z M100.45,43.46c0.54,0,1-0.08,1.38-0.23c0.39-0.15,0.7-0.37,0.94-0.65
		c0.24-0.28,0.42-0.61,0.53-1c0.11-0.39,0.17-0.83,0.17-1.3c0-0.56-0.08-1.05-0.24-1.46c-0.16-0.41-0.39-0.74-0.69-1
		c-0.3-0.26-0.67-0.45-1.1-0.57c-0.43-0.12-0.92-0.17-1.46-0.15H98.9v6.36H100.45z"/>
	<path class="st0" d="M113.67,36.46v4.94c0.03,0.7,0.23,1.24,0.6,1.63c0.37,0.39,0.87,0.59,1.51,0.59c0.63,0,1.14-0.2,1.51-0.59
		c0.37-0.39,0.57-0.94,0.6-1.63v-4.94h0.68v4.95c-0.01,0.41-0.07,0.79-0.18,1.14c-0.12,0.35-0.29,0.65-0.52,0.9
		c-0.23,0.25-0.52,0.45-0.87,0.59c-0.34,0.14-0.75,0.21-1.21,0.21c-0.47,0-0.87-0.07-1.22-0.21c-0.35-0.14-0.63-0.34-0.87-0.59
		c-0.23-0.25-0.41-0.55-0.52-0.9c-0.12-0.35-0.18-0.73-0.19-1.14v-4.95H113.67z"/>
	<path class="st0" d="M132.51,42.09c0,0.42-0.08,0.76-0.25,1.04c-0.17,0.28-0.39,0.5-0.66,0.67c-0.28,0.17-0.59,0.28-0.95,0.35
		c-0.36,0.07-0.72,0.11-1.1,0.11c-0.3,0-0.59-0.05-0.86-0.16c-0.27-0.11-0.51-0.25-0.72-0.44c-0.21-0.19-0.37-0.42-0.5-0.68
		c-0.12-0.26-0.19-0.55-0.2-0.87h0.74c0.01,0.3,0.06,0.54,0.16,0.73c0.1,0.19,0.24,0.35,0.42,0.46c0.18,0.12,0.38,0.2,0.61,0.24
		c0.23,0.05,0.47,0.07,0.73,0.07c0.21,0,0.43-0.03,0.65-0.09c0.22-0.06,0.42-0.16,0.59-0.28c0.18-0.12,0.32-0.27,0.43-0.45
		c0.11-0.18,0.17-0.4,0.17-0.65c0-0.19-0.03-0.36-0.1-0.5c-0.06-0.14-0.15-0.26-0.26-0.37c-0.11-0.11-0.24-0.2-0.38-0.27
		c-0.14-0.07-0.3-0.14-0.46-0.2c-0.31-0.11-0.65-0.21-1.01-0.33c-0.36-0.11-0.7-0.26-1.02-0.43c-0.31-0.18-0.58-0.4-0.78-0.67
		c-0.21-0.27-0.31-0.61-0.31-1.03c0-0.33,0.07-0.63,0.21-0.88c0.14-0.26,0.33-0.47,0.55-0.64c0.23-0.17,0.49-0.3,0.78-0.4
		c0.29-0.09,0.59-0.14,0.89-0.14c0.25,0,0.52,0.03,0.79,0.08c0.27,0.05,0.53,0.15,0.77,0.28c0.24,0.13,0.44,0.32,0.61,0.56
		c0.17,0.24,0.27,0.54,0.32,0.91h-0.74c-0.01-0.23-0.06-0.43-0.16-0.58c-0.1-0.16-0.23-0.28-0.39-0.36
		c-0.16-0.09-0.33-0.15-0.53-0.19c-0.19-0.04-0.39-0.05-0.59-0.05c-0.2,0-0.4,0.03-0.61,0.08c-0.21,0.05-0.4,0.13-0.58,0.24
		c-0.17,0.11-0.31,0.24-0.42,0.41c-0.11,0.17-0.16,0.37-0.16,0.6c0,0.36,0.11,0.64,0.32,0.85c0.21,0.21,0.48,0.38,0.8,0.52
		c0.32,0.14,0.67,0.26,1.04,0.36c0.37,0.11,0.72,0.24,1.04,0.4c0.32,0.16,0.59,0.37,0.8,0.63C132.4,41.3,132.51,41.65,132.51,42.09z
		"/>
	<path class="st0" d="M142.59,37.1h-2.46v-0.64h5.58v0.64h-2.42l-0.01,7h-0.67L142.59,37.1z"/>
	<path class="st0" d="M154.7,44.1h-0.68v-7.64h2.49c0.33,0,0.64,0.02,0.93,0.07c0.29,0.05,0.58,0.16,0.87,0.33
		c0.27,0.16,0.46,0.38,0.59,0.65c0.13,0.27,0.19,0.58,0.19,0.95c0,0.42-0.13,0.77-0.4,1.05c-0.27,0.28-0.62,0.48-1.07,0.59v0.02
		c0.24,0.04,0.44,0.11,0.59,0.21c0.16,0.1,0.28,0.22,0.38,0.37c0.1,0.15,0.17,0.32,0.21,0.51c0.05,0.19,0.08,0.4,0.1,0.61
		c0.04,0.31,0.06,0.58,0.08,0.81c0.02,0.23,0.04,0.44,0.06,0.61c0.02,0.18,0.05,0.33,0.09,0.47c0.04,0.14,0.1,0.26,0.17,0.38h-0.79
		c-0.09-0.25-0.15-0.51-0.19-0.78c-0.03-0.27-0.06-0.54-0.08-0.8c-0.04-0.44-0.09-0.79-0.13-1.06c-0.04-0.27-0.12-0.48-0.23-0.63
		c-0.11-0.15-0.26-0.25-0.46-0.3c-0.2-0.05-0.47-0.07-0.82-0.07h-1.89V44.1z M156.17,39.82c0.24,0,0.49-0.01,0.75-0.03
		c0.26-0.02,0.49-0.08,0.7-0.16c0.21-0.09,0.38-0.22,0.52-0.41c0.14-0.18,0.21-0.44,0.21-0.76c0-0.37-0.08-0.64-0.23-0.83
		c-0.15-0.19-0.33-0.32-0.55-0.4c-0.21-0.08-0.44-0.12-0.69-0.13c-0.24,0-0.46-0.01-0.64-0.01h-1.54v2.73H156.17z"/>
	<path class="st0" d="M168.17,44.1v-7.67h0.69v7.67H168.17z"/>
	<path class="st0" d="M178.13,44.1v-7.64h4.54v0.64h-3.85v2.74h3.7v0.64h-3.7v2.99h4.01v0.64H178.13z"/>
	<path class="st0" d="M196.43,42.09c0,0.42-0.08,0.76-0.25,1.04c-0.17,0.28-0.39,0.5-0.66,0.67c-0.27,0.17-0.59,0.28-0.95,0.35
		c-0.36,0.07-0.72,0.11-1.11,0.11c-0.3,0-0.59-0.05-0.86-0.16c-0.27-0.11-0.51-0.25-0.72-0.44c-0.21-0.19-0.37-0.42-0.5-0.68
		c-0.12-0.26-0.19-0.55-0.2-0.87h0.74c0.01,0.3,0.06,0.54,0.16,0.73c0.1,0.19,0.24,0.35,0.42,0.46c0.18,0.12,0.38,0.2,0.61,0.24
		c0.23,0.05,0.47,0.07,0.73,0.07c0.21,0,0.43-0.03,0.65-0.09c0.22-0.06,0.42-0.16,0.59-0.28c0.18-0.12,0.32-0.27,0.43-0.45
		c0.11-0.18,0.17-0.4,0.17-0.65c0-0.19-0.03-0.36-0.1-0.5c-0.06-0.14-0.15-0.26-0.26-0.37c-0.11-0.11-0.24-0.2-0.38-0.27
		c-0.15-0.07-0.3-0.14-0.46-0.2c-0.31-0.11-0.65-0.21-1.01-0.33c-0.36-0.11-0.7-0.26-1.02-0.43c-0.31-0.18-0.58-0.4-0.78-0.67
		c-0.21-0.27-0.31-0.61-0.31-1.03c0-0.33,0.07-0.63,0.21-0.88c0.14-0.26,0.33-0.47,0.55-0.64c0.23-0.17,0.49-0.3,0.78-0.4
		c0.29-0.09,0.59-0.14,0.89-0.14c0.25,0,0.52,0.03,0.79,0.08c0.27,0.05,0.53,0.15,0.77,0.28c0.24,0.13,0.44,0.32,0.61,0.56
		c0.17,0.24,0.27,0.54,0.32,0.91h-0.74c-0.01-0.23-0.06-0.43-0.16-0.58c-0.1-0.16-0.23-0.28-0.39-0.36
		c-0.16-0.09-0.33-0.15-0.53-0.19c-0.19-0.04-0.39-0.05-0.59-0.05c-0.2,0-0.4,0.03-0.61,0.08c-0.21,0.05-0.4,0.13-0.58,0.24
		c-0.17,0.11-0.31,0.24-0.42,0.41c-0.11,0.17-0.16,0.37-0.16,0.6c0,0.36,0.1,0.64,0.32,0.85c0.21,0.21,0.48,0.38,0.8,0.52
		c0.32,0.14,0.67,0.26,1.04,0.36c0.38,0.11,0.72,0.24,1.04,0.4c0.32,0.16,0.59,0.37,0.8,0.63C196.32,41.3,196.43,41.65,196.43,42.09
		z"/>
</g>
</svg>
